<?xml version="1.0" encoding="UTF-8" standalone="no"?>
<svg
   width="124.25"
   height="28"
   role="img"
   aria-label="TRYHACKME"
   version="1.1"
   id="svg2"
   sodipodi:docname="htblogo.svg"
   xml:space="preserve"
   inkscape:version="1.3.2 (091e20ef0f, 2023-11-25, custom)"
   xmlns:inkscape="http://www.inkscape.org/namespaces/inkscape"
   xmlns:sodipodi="http://sodipodi.sourceforge.net/DTD/sodipodi-0.dtd"
   xmlns="http://www.w3.org/2000/svg"
   xmlns:svg="http://www.w3.org/2000/svg"
   xmlns:rdf="http://www.w3.org/1999/02/22-rdf-syntax-ns#"
   xmlns:cc="http://creativecommons.org/ns#"
   xmlns:dc="http://purl.org/dc/elements/1.1/"><defs
     id="defs2" /><sodipodi:namedview
     id="namedview2"
     pagecolor="#ffffff"
     bordercolor="#cccccc"
     borderopacity="1"
     inkscape:showpageshadow="0"
     inkscape:pageopacity="1"
     inkscape:pagecheckerboard="0"
     inkscape:deskcolor="#d1d1d1"
     inkscape:zoom="10.60061"
     inkscape:cx="53.440321"
     inkscape:cy="17.687661"
     inkscape:window-width="1898"
     inkscape:window-height="1024"
     inkscape:window-x="10"
     inkscape:window-y="44"
     inkscape:window-maximized="1"
     inkscape:current-layer="svg2" /><title
     id="title1">TRYHACKME</title><g
     shape-rendering="crispEdges"
     id="g1"
     style="fill:#009c00;fill-opacity:1"><rect
       width="124.25"
       height="28"
       fill="#88cc14"
       id="rect1"
       style="fill:#009c00;fill-opacity:1" /></g><path
     d="m 14.692863,1.0313901 c 0.1421,-0.039786 0.289278,-0.035444 0.436491,-0.021292 0.186474,0.018908 0.343892,0.1360306 0.506101,0.223709 3.269186,1.8711377 6.538391,3.7471803 9.812482,5.6182991 0.314535,0.1557668 0.546356,0.488442 0.528122,0.8515039 l 0.04459,11.6597489 c 0.01105,0.328613 -0.19379,0.633526 -0.472808,0.786658 -3.323301,1.935588 -6.646586,3.876084 -9.96989,5.811672 -0.298469,0.197354 -0.71049,0.203836 -1.015328,0.0186 C 11.283607,24.104288 8.0094981,22.228262 4.7304644,20.347351 4.5682164,20.249868 4.3913269,20.172057 4.2681332,20.025369 4.115433,19.859172 4.0360873,19.633832 4.045034,19.408152 4.0301617,15.518299 4.0153039,11.633353 4.0004314,7.7434992 3.9893174,7.4197899 4.1942406,7.1148779 4.468352,6.9617653 7.7525071,5.0508524 11.03174,3.1350535 14.310989,1.2241595 c 0.127274,-0.069161 0.244681,-0.153 0.381877,-0.1927679 z m 0.200214,2.3292558 c -0.07355,0.010093 -0.137156,0.049574 -0.200796,0.08416 -2.261212,1.3183643 -4.522443,2.6318237 -6.7787289,3.9550738 -0.269208,0.1530934 -0.267518,0.5945654 0.01253,0.7406526 2.2761689,1.3108237 4.5572079,2.6118197 6.8382639,3.9177197 0.142612,0.09266 0.338818,0.09192 0.480713,-0.0019 2.271004,-1.323307 4.542027,-2.64171 6.808105,-3.9699027 0.274131,-0.1482078 0.277347,-0.5896972 0.002,-0.7407098 C 19.779012,6.03988 17.497955,4.7339798 15.216899,3.4280794 15.123449,3.3646704 15.005636,3.3405854 14.892891,3.3606494 Z M 6.3888101,10.177207 c -0.171439,0.06441 -0.283546,0.251256 -0.273042,0.432713 l 0.03,7.843473 c -0.0042,0.176607 0.104298,0.338067 0.256666,0.415969 2.271228,1.301032 4.5375509,2.602085 6.8087599,3.898213 0.280255,0.170614 0.66685,-0.07122 0.64599,-0.394896 -0.01,-2.614491 -0.02001,-5.233887 -0.03001,-7.848379 0.0042,-0.161891 -0.07971,-0.31854 -0.217366,-0.401405 -2.271232,-1.301032 -4.5424619,-2.602065 -6.8136889,-3.903098 -0.118003,-0.07313 -0.275106,-0.106872 -0.407303,-0.04258 z m 16.9132389,-0.06959 c -0.200757,0.09398 -0.381782,0.217293 -0.577579,0.32596 -2.094809,1.219621 -4.189598,2.444147 -6.284408,3.663769 -0.156667,0.07909 -0.249227,0.246217 -0.243647,0.422788 l 0.03,7.843475 c -0.01838,0.32382 0.370049,0.562695 0.64901,0.394849 2.261212,-1.318365 4.522423,-2.63673 6.778748,-3.95017 0.151781,-0.07415 0.263964,-0.24137 0.253498,-0.413015 -0.01011,-2.629208 -0.0201,-5.258413 -0.03016,-7.887621 0.0038,-0.284522 -0.315886,-0.508944 -0.57545,-0.400035 z"
     fill="#ffffff"
     id="path1"
     style="stroke-width:0.0490528" /><text
     xml:space="preserve"
     style="font-style:normal;font-weight:normal;font-size:12.7355px;line-height:1.05;font-family:sans-serif;letter-spacing:0px;white-space:pre;inline-size:91.5461;display:inline;fill:#ffffff;fill-opacity:1;stroke:none;stroke-width:0.281456"
     x="29.167347"
     y="18.740227"
     id="text3"
     transform="matrix(1.0051417,0,0,1.0051417,-0.1552771,-0.05032276)"><tspan
       x="29.167347"
       y="18.740227"
       id="tspan2"><tspan
         style="font-weight:bold;font-family:Cantarell;-inkscape-font-specification:Cantarell"
         id="tspan1">HACK THE BOX</tspan></tspan></text><metadata
     id="metadata5"><rdf:RDF><cc:Work
         rdf:about=""><dc:title>TRYHACKME</dc:title></cc:Work></rdf:RDF></metadata></svg>
