<?xml version="1.0" encoding="UTF-8" standalone="no"?>
<svg
   width="124.25"
   height="28"
   role="img"
   aria-label="TRYHACKME"
   version="1.1"
   id="svg2"
   sodipodi:docname="htblogo.svg"
   xml:space="preserve"
   inkscape:version="1.3.2 (091e20ef0f, 2023-11-25, custom)"
   xmlns:inkscape="http://www.inkscape.org/namespaces/inkscape"
   xmlns:sodipodi="http://sodipodi.sourceforge.net/DTD/sodipodi-0.dtd"
   xmlns="http://www.w3.org/2000/svg"
   xmlns:svg="http://www.w3.org/2000/svg"
   xmlns:rdf="http://www.w3.org/1999/02/22-rdf-syntax-ns#"
   xmlns:cc="http://creativecommons.org/ns#"
   xmlns:dc="http://purl.org/dc/elements/1.1/"><defs
     id="defs2" /><sodipodi:namedview
     id="namedview2"
     pagecolor="#ffffff"
     bordercolor="#cccccc"
     borderopacity="1"
     inkscape:showpageshadow="0"
     inkscape:pageopacity="1"
     inkscape:pagecheckerboard="0"
     inkscape:deskcolor="#d1d1d1"
     inkscape:zoom="10.60061"
     inkscape:cx="59.572044"
     inkscape:cy="24.85706"
     inkscape:window-width="1898"
     inkscape:window-height="1024"
     inkscape:window-x="10"
     inkscape:window-y="44"
     inkscape:window-maximized="1"
     inkscape:current-layer="svg2" /><title
     id="title1">TRYHACKME</title><g
     shape-rendering="crispEdges"
     id="g1"
     style="fill:#f729b1;fill-opacity:1"><rect
       width="124.25"
       height="28"
       fill="#88cc14"
       id="rect1"
       style="fill:#f729b1;fill-opacity:1" /></g><path
     d="m 17.672402,5.0217772 c 0.09858,-0.027601 0.200692,-0.024591 0.302825,-0.01477 0.12937,0.01312 0.238583,0.09437 0.351118,0.155203 2.268069,1.298143 4.536152,2.599689 6.807623,3.897817 0.218216,0.108067 0.379046,0.338868 0.366396,0.59075 l 0.03094,8.0892028 c 0.0076,0.227983 -0.134446,0.439523 -0.328021,0.545762 -2.305613,1.342857 -4.611213,2.689118 -6.916828,4.031974 -0.207069,0.136918 -0.492918,0.141416 -0.704406,0.0129 -2.274892,-1.301513 -4.546377,-2.603046 -6.821278,-3.907969 -0.112563,-0.06763 -0.235284,-0.121615 -0.320752,-0.223382 -0.105939,-0.115303 -0.160987,-0.271637 -0.154781,-0.428208 -0.01032,-2.69867 -0.02063,-5.393936 -0.03094,-8.0926068 -0.0077,-0.22458 0.134461,-0.43612 0.324631,-0.542345 2.278454,-1.325737 4.553494,-2.654864 6.828544,-3.980588 0.0883,-0.04798 0.169753,-0.106147 0.264935,-0.133737 z m 0.138902,1.615971 c -0.05102,0.007 -0.09516,0.03439 -0.139306,0.05839 -1.568765,0.914644 -3.137543,1.825885 -4.70289,2.743919 -0.186769,0.106212 -0.185597,0.412492 0.0087,0.513844 1.579142,0.9094128 3.161662,1.8120058 4.744194,2.7180018 0.09894,0.06429 0.235063,0.06377 0.333504,-0.0013 1.575559,-0.918107 3.151132,-1.832776 4.723271,-2.7542398 0.190186,-0.102823 0.192416,-0.409115 0.0014,-0.513884 -1.579172,-0.905952 -3.161704,-1.811948 -4.744237,-2.717945 -0.06483,-0.04399 -0.146568,-0.0607 -0.224788,-0.04678 z m -5.90002,4.7291368 c -0.118939,0.04469 -0.196715,0.174314 -0.189428,0.300204 l 0.02081,5.441581 c -0.0029,0.122525 0.07236,0.234541 0.178067,0.288587 1.575715,0.902619 3.148025,1.805252 4.723726,2.70447 0.194433,0.118367 0.462641,-0.04941 0.44817,-0.273968 -0.0069,-1.81386 -0.01388,-3.631123 -0.02083,-5.444982 0.0029,-0.112316 -0.0553,-0.220995 -0.150802,-0.278484 -1.575713,-0.902619 -3.151428,-1.80524 -4.727141,-2.70786 -0.08187,-0.05073 -0.190861,-0.07414 -0.282576,-0.02954 z m 11.733928,-0.04828 c -0.13928,0.0652 -0.264869,0.15075 -0.400709,0.226141 -1.453318,0.84614 -2.906624,1.695681 -4.359944,2.541821 -0.108691,0.05487 -0.172906,0.170818 -0.169036,0.293317 l 0.02082,5.441581 c -0.01275,0.224658 0.25673,0.390382 0.450266,0.273935 1.568764,-0.914645 3.137529,-1.829289 4.702903,-2.740516 0.105301,-0.05144 0.183131,-0.167456 0.175869,-0.286538 -0.007,-1.82407 -0.01395,-3.648137 -0.02092,-5.472208 0.0026,-0.197393 -0.219154,-0.35309 -0.399232,-0.277532 z"
     fill="#ffffff"
     id="path1"
     style="stroke-width:0.0340315" /><text
     xml:space="preserve"
     style="font-style:normal;font-weight:normal;font-size:12.7355px;line-height:1.05;font-family:sans-serif;letter-spacing:0px;white-space:pre;inline-size:118.348;display:inline;fill:#ffffff;fill-opacity:1;stroke:none;stroke-width:0.281456"
     x="29.167347"
     y="18.740227"
     id="text3"
     transform="matrix(0.81877276,0,0,0.81877276,5.4729801,1.9865318)"><tspan
       x="29.167347"
       y="18.740227"
       id="tspan2"><tspan
         style="font-weight:bold;font-family:Cantarell;-inkscape-font-specification:Cantarell"
         id="tspan1">H A C K  T H E  B O X</tspan></tspan></text><metadata
     id="metadata5"><rdf:RDF><cc:Work
         rdf:about=""><dc:title>TRYHACKME</dc:title></cc:Work></rdf:RDF></metadata></svg>
