<?xml version="1.0" encoding="UTF-8" standalone="no"?>
<svg
   width="124.25"
   height="28"
   role="img"
   aria-label="TRYHACKME"
   version="1.1"
   id="svg2"
   sodipodi:docname="htblogo.svg"
   xml:space="preserve"
   inkscape:version="1.3.2 (091e20ef0f, 2023-11-25, custom)"
   xmlns:inkscape="http://www.inkscape.org/namespaces/inkscape"
   xmlns:sodipodi="http://sodipodi.sourceforge.net/DTD/sodipodi-0.dtd"
   xmlns="http://www.w3.org/2000/svg"
   xmlns:svg="http://www.w3.org/2000/svg"
   xmlns:rdf="http://www.w3.org/1999/02/22-rdf-syntax-ns#"
   xmlns:cc="http://creativecommons.org/ns#"
   xmlns:dc="http://purl.org/dc/elements/1.1/"><defs
     id="defs2" /><sodipodi:namedview
     id="namedview2"
     pagecolor="#ffffff"
     bordercolor="#cccccc"
     borderopacity="1"
     inkscape:showpageshadow="0"
     inkscape:pageopacity="1"
     inkscape:pagecheckerboard="0"
     inkscape:deskcolor="#d1d1d1"
     inkscape:zoom="10.60061"
     inkscape:cx="59.572044"
     inkscape:cy="17.687661"
     inkscape:window-width="1898"
     inkscape:window-height="1024"
     inkscape:window-x="10"
     inkscape:window-y="44"
     inkscape:window-maximized="1"
     inkscape:current-layer="svg2" /><title
     id="title1">TRYHACKME</title><g
     shape-rendering="crispEdges"
     id="g1"
     style="fill:#009c00;fill-opacity:1"><rect
       width="124.25"
       height="28"
       fill="#88cc14"
       id="rect1"
       style="fill:#009c00;fill-opacity:1" /></g><path
     d="m 16.733646,4.0256388 c 0.116062,-0.032496 0.236273,-0.02895 0.356514,-0.017391 0.152306,0.015443 0.280882,0.1111061 0.413369,0.1827195 2.670184,1.5282954 5.340384,3.0605967 8.014574,4.5888767 0.256904,0.127226 0.446249,0.398947 0.431356,0.695486 l 0.03642,9.523371 c 0.009,0.268403 -0.158282,0.517448 -0.386177,0.642523 -2.714384,1.580937 -5.428754,3.165882 -8.14314,4.746819 -0.243782,0.161193 -0.58031,0.166488 -0.829293,0.01519 C 13.949056,22.870967 11.274851,21.338679 8.596624,19.802401 8.464104,19.722781 8.319625,19.659225 8.219004,19.539415 8.094283,19.403669 8.029475,19.219618 8.036782,19.035288 8.024635,15.85816 8.0125,12.68504 8.000352,9.50791 7.9912747,9.243513 8.158651,8.994469 8.382537,8.869411 11.064948,7.308628 13.743338,5.7438549 16.421741,4.1830876 16.525695,4.1265986 16.62159,4.0581213 16.733648,4.02564 Z m 0.163528,1.902474 c -0.06007,0.00824 -0.112025,0.040491 -0.164004,0.06874 -1.846898,1.0768042 -3.693811,2.1496032 -5.536685,3.2303982 -0.219882,0.125043 -0.218502,0.485625 0.01023,0.604946 1.859114,1.070646 3.722206,2.133265 5.585311,3.199889 0.116482,0.07569 0.276738,0.07508 0.392633,-0.0015 1.854896,-1.080882 3.709808,-2.157718 5.560679,-3.242551 0.223904,-0.121052 0.22653,-0.481649 0.0016,-0.604992 C 20.887849,8.11644 19.024743,7.049815 17.161636,5.9831906 17.085308,5.9313998 16.989083,5.9117281 16.896995,5.9281155 Z M 9.951116,11.495698 c -0.140026,0.05261 -0.231592,0.205219 -0.223013,0.353429 l 0.0245,6.40634 c -0.0034,0.144248 0.08519,0.276124 0.209638,0.339752 1.855078,1.062648 3.70615,2.125313 5.561213,3.183957 0.228905,0.139352 0.544665,-0.05817 0.527628,-0.322541 -0.0081,-2.135447 -0.01634,-4.2749 -0.02452,-6.410346 0.0034,-0.132229 -0.0651,-0.260176 -0.177539,-0.327858 -1.855077,-1.062648 -3.710157,-2.125297 -5.565234,-3.187947 -0.09638,-0.05973 -0.2247,-0.08729 -0.332675,-0.03478 z m 13.814283,-0.05684 c -0.163973,0.07676 -0.311829,0.177478 -0.471752,0.266235 -1.710983,0.996154 -3.421951,1.996314 -5.132936,2.992469 -0.127962,0.0646 -0.203562,0.201103 -0.199005,0.345322 l 0.02451,6.406341 c -0.01501,0.264488 0.302246,0.459594 0.530095,0.322502 1.846897,-1.076806 3.693794,-2.153611 5.5367,-3.226393 0.12397,-0.06056 0.215599,-0.197145 0.20705,-0.33734 -0.0082,-2.147467 -0.01642,-4.294931 -0.02463,-6.442399 0.0031,-0.23239 -0.258008,-0.415691 -0.470013,-0.326737 z"
     fill="#ffffff"
     id="path1"
     style="stroke-width:0.0400651" /><text
     xml:space="preserve"
     style="font-style:normal;font-weight:normal;font-size:12.7355px;line-height:1.05;font-family:sans-serif;letter-spacing:0px;white-space:pre;inline-size:91.5461;display:inline;fill:#ffffff;fill-opacity:1;stroke:none;stroke-width:0.281456"
     x="29.167347"
     y="18.740227"
     id="text3"
     transform="matrix(1.0051417,0,0,1.0051417,-0.1552771,-0.05032276)"><tspan
       x="29.167347"
       y="18.740227"
       id="tspan2"><tspan
         style="font-weight:bold;font-family:Cantarell;-inkscape-font-specification:Cantarell"
         id="tspan1">HACK THE BOX</tspan></tspan></text><metadata
     id="metadata5"><rdf:RDF><cc:Work
         rdf:about=""><dc:title>TRYHACKME</dc:title></cc:Work></rdf:RDF></metadata></svg>
